# xmcd CD database file
#
# Track frame offsets:
#	150
#	18887
#	52915
#	80542
#	100682
#	142285
#
# Disc length: 2096 seconds
#
# Revision: 1
# Processed by: cddbd v1.5PL3 Copyright (c) Steve Scherf et al.
# Submitted via: CDex 1.50beta9
#
DISCID=44082e06
DTITLE=Steven Anderson - Gypsy Power
DYEAR=1994
DGENRE=メタル (一般)
TTITLE0=Dance of the fortune teller
TTITLE1=The child within
TTITLE2=Gipsy fly
TTITLE3=Orient express
TTITLE4=Paw-Kwa and the great monade
TTITLE5=The scarlet slapstick
EXTD=YEAR: 1994
EXTT0=
EXTT1=
EXTT2=
EXTT3=
EXTT4=
EXTT5=
PLAYORDER=
